# xmcd CD database file generated by OrangeCD 5.0
#
# Track frame offsets:
#	150
#	14854
#	25918
#	36621
#	47762
#	58126
#	67232
#	81554
#	94917
#	110221
#	124711
#	135312
#	148761
#	159542
#	173147
#	186115
#	194534
#	211390
#	229506
#
# Disc length: 3139 seconds
#
# Revision: 0
# Processed by: cddbd v1.4PL0 Copyright (c) Steve Scherf et al.
# Submitted via: OrangeCD 5.0
#
DISCID=280c4113
DTITLE=Otis Redding - Remember Me
DYEAR=1900
DGENRE=Soul
TTITLE0=Trick Or Treat
TTITLE1=Loving By The Pound
TTITLE2=There Goes My Baby
TTITLE3=Remember Me 
TTITLE4=Send Me Some Lovin'
TTITLE5=She's Allright
TTITLE6=Cupid
TTITLE7=The Boston Monkey
TTITLE8=Don't Be Afraid Of Love
TTITLE9=Little Ol'me
TTITLE10=Pounds And Hundreds (Lbs+100s)
TTITLE11=You Got Good Lovin'
TTITLE12=Gone Again
TTITLE13=I'm Coming Home
TTITLE14=(Sittin'on) The Dock Of The Bay
TTITLE15=Respect (Alternate)
TTITLE16=I've Got Dreams To Remember (2)
TTITLE17=Tty A Little Tenderness (Take 1)
TTITLE18=Stay In School
EXTD=
EXTT0=
EXTT1=
EXTT2=
EXTT3=
EXTT4=
EXTT5=
EXTT6=
EXTT7=
EXTT8=
EXTT9=
EXTT10=
EXTT11=
EXTT12=
EXTT13=
EXTT14=
EXTT15=
EXTT16=
EXTT17=
EXTT18=
PLAYORDER=
